<svg xmlns="http://www.w3.org/2000/svg" version="1.1" xmlns:xlink="http://www.w3.org/1999/xlink" xmlns:svgjs="http://svgjs.dev/svgjs" width="1000" height="1125" viewBox="0 0 1000 1125"><g transform="matrix(1,0,0,1,0,0)"><svg viewBox="0 0 320 360" data-background-color="#ffffff" preserveAspectRatio="xMidYMid meet" height="1125" width="1000" xmlns="http://www.w3.org/2000/svg" xmlns:xlink="http://www.w3.org/1999/xlink"><g id="tight-bounds" transform="matrix(1,0,0,1,0,0)"><svg viewBox="0 0 320 360" height="360" width="320"><g><svg></svg></g><g><svg viewBox="0 0 320 360" height="360" width="320"><g><path d="M297.491 100.645c-12.426-21.51-112.674-79.355-137.491-79.355-24.817 0-125.028 57.845-137.491 79.355-11.591 20.02-11.591 138.726 0 158.746 12.463 21.474 112.674 79.319 137.491 79.319 24.817 0 125.064-57.845 137.491-79.355 11.591-20.02 11.591-138.69 0-158.71zM309.481 93.705c-14.461-24.998-119.469-86.295-149.481-86.295-30.012 0-135.02 61.297-149.481 86.295-14.025 24.199-14.025 148.391 0 172.59 14.461 24.998 119.469 86.295 149.481 86.295 30.012 0 135.02-61.297 149.481-86.259 14.025-24.235 14.025-148.427 0-172.626zM300.906 261.353c-12.753 22.055-115.472 81.317-140.906 81.318-25.434 0-128.153-59.298-140.906-81.354-11.881-20.529-11.881-142.178 0-162.707 12.753-22.019 115.472-81.281 140.906-81.281 25.434 0 128.153 59.298 140.906 81.318 11.881 20.529 11.881 142.178 0 162.706z" fill="#6936f5" fill-rule="nonzero" stroke="none" stroke-width="1" stroke-linecap="butt" stroke-linejoin="miter" stroke-miterlimit="10" stroke-dasharray="" stroke-dashoffset="0" font-family="none" font-weight="none" font-size="none" text-anchor="none" style="mix-blend-mode: normal" data-fill-palette-color="tertiary"></path></g><g transform="matrix(1,0,0,1,73.93488372093024,90)"><svg viewBox="0 0 172.1302325581395 180" height="180" width="172.1302325581395"><g><svg viewBox="0 0 172.1302325581395 180" height="180" width="172.1302325581395"><g><svg viewBox="0 0 172.1302325581395 180" height="180" width="172.1302325581395"><g><svg viewBox="0 0 172.1302325581395 180" height="180" width="172.1302325581395"><g id="textblocktransform"><svg viewBox="0 0 172.1302325581395 180" height="180" width="172.1302325581395" id="textblock"><g><svg viewBox="0 0 172.1302325581395 180" height="180" width="172.1302325581395"><g transform="matrix(1,0,0,1,0,0)"><svg width="172.1302325581395" viewBox="3.2 -26.25 25.1 26.25" height="180" data-palette-color="#ffffff"><path d="M3.91-10.06L3.91-16.21Q3.91-18.41 3.86-20.03 3.81-21.66 3.72-22.84 3.64-24.02 3.5-24.83 3.37-25.63 3.2-26.15L3.2-26.15 3.2-26.25 8.84-26.25 8.84-26.15Q8.67-25.63 8.54-24.83 8.42-24.02 8.34-22.84 8.25-21.66 8.2-20.03 8.15-18.41 8.15-16.21L8.15-16.21 8.15-14.6 19.31-23.75Q20.24-24.51 20.72-25.1 21.19-25.68 21.19-26.25L21.19-26.25 27-26.25 27-26.15Q25.9-25.88 24.74-25.17 23.58-24.46 22.29-23.39L22.29-23.39 12.55-15.41 22.71-4.86Q24.73-2.73 26.14-1.62 27.54-0.51 28.3-0.1L28.3-0.1 28.3 0 21.66 0Q21.39-0.49 20.51-1.44 19.63-2.39 18.19-3.91L18.19-3.91 8.15-14.36 8.15-10.06Q8.15-7.86 8.2-6.23 8.25-4.59 8.34-3.41 8.42-2.22 8.54-1.42 8.67-0.61 8.84-0.1L8.84-0.1 8.84 0 3.2 0 3.2-0.1Q3.37-0.61 3.5-1.42 3.64-2.22 3.72-3.41 3.81-4.59 3.86-6.23 3.91-7.86 3.91-10.06L3.91-10.06Z" opacity="1" transform="matrix(1,0,0,1,0,0)" fill="#ffffff" class="wordmark-text-0" data-fill-palette-color="quaternary" id="text-0"></path></svg></g></svg></g></svg></g></svg></g><g></g></svg></g></svg></g></svg></g></svg></g><defs></defs></svg><rect width="320" height="360" fill="none" stroke="none" visibility="hidden"></rect></g></svg></g></svg>