<svg xmlns="http://www.w3.org/2000/svg" version="1.1" xmlns:xlink="http://www.w3.org/1999/xlink" xmlns:svgjs="http://svgjs.dev/svgjs" width="1000" height="1125" viewBox="0 0 1000 1125"><g transform="matrix(1,0,0,1,0,0)"><svg viewBox="0 0 320 360" data-background-color="#ffffff" preserveAspectRatio="xMidYMid meet" height="1125" width="1000" xmlns="http://www.w3.org/2000/svg" xmlns:xlink="http://www.w3.org/1999/xlink"><g id="tight-bounds" transform="matrix(1,0,0,1,0,0)"><svg viewBox="0 0 320 360" height="360" width="320"><g><svg></svg></g><g><svg viewBox="0 0 320 360" height="360" width="320"><g><path xmlns="http://www.w3.org/2000/svg" d="M320 187.111c0-45.764-20.238-86.866-52.203-114.908-28.043-31.964-69.145-52.203-114.908-52.203-84.302 0-152.889 68.587-152.889 152.889 0 45.753 20.231 86.848 52.185 114.891 28.043 31.975 69.152 52.22 114.926 52.22 0.299 0 0.59-0.021 0.889-0.021 0.299 0 0.59 0.021 0.889 0.021 83.456 0 151.111-67.655 151.111-151.111 0-0.299-0.021-0.59-0.021-0.889 0-0.299 0.021-0.59 0.021-0.889zM59.833 263.097c-15.093-21.255-24.071-47.143-24.256-75.097 0.48-72.928 59.492-131.943 132.423-132.423 27.954 0.185 53.845 9.163 75.097 24.256 24.366 23.627 39.57 56.64 39.57 93.056 0 71.559-58.219 129.778-129.778 129.778-36.416 0-69.429-15.204-93.056-39.57zM3.556 172.889c0-82.343 66.99-149.333 149.333-149.333 35.051 0 67.292 12.167 92.8 32.462-22.98-13.824-49.863-21.796-78.578-21.796-84.302 0-152.889 68.587-152.889 152.889 0 28.708 7.968 55.584 21.785 78.56-20.288-25.5-32.452-57.739-32.451-92.782zM167.111 318.667c-35.84 0-68.363-14.418-92.107-37.743 21.952 15.89 48.864 25.298 77.885 25.298 73.522 0 133.333-59.812 133.333-133.333 0-29.02-9.408-55.932-25.298-77.885 23.324 23.744 37.742 56.267 37.743 92.107 0 72.54-59.015 131.556-131.556 131.556z" fill="#8d021f" fill-rule="nonzero" stroke="none" stroke-width="1" stroke-linecap="butt" stroke-linejoin="miter" stroke-miterlimit="10" stroke-dasharray="" stroke-dashoffset="0" font-family="none" font-weight="none" font-size="none" text-anchor="none" style="mix-blend-mode: normal" data-fill-palette-color="tertiary"></path></g><g transform="matrix(1,0,0,1,64,128.1795918367347)"><svg viewBox="0 0 192 103.64081632653063" height="103.64081632653063" width="192"><g><svg viewBox="0 0 192 103.64081632653063" height="103.64081632653063" width="192"><g><svg viewBox="0 0 192 103.64081632653063" height="103.64081632653063" width="192"><g><svg viewBox="0 0 192 103.64081632653063" height="103.64081632653063" width="192"><g id="textblocktransform"><svg viewBox="0 0 192 103.64081632653063" height="103.64081632653063" width="192" id="textblock"><g><svg viewBox="0 0 192 103.64081632653063" height="103.64081632653063" width="192"><g transform="matrix(1,0,0,1,0,0)"><svg width="192" viewBox="-12.649999618530273 -26.450000762939453 49 26.450000762939453" height="103.64081632653063" data-palette-color="#8d021f"><path d="M31.9 0L22.75 0 20.4-8.65 20.1-8.65 18.6 0 10.2 0 14.8-26.45 23.25-26.45 21.8-18.35 22.05-18.35 27.2-26.45 36.35-26.45 27.95-13.5 31.9 0ZM8.95-2.4L8.55-0.15-12.65-2.4 8.95-2.4ZM10.65-12.05L10.25-9.8-10.95-12.05 10.65-12.05ZM11.5-16.85L11.1-14.6-10.1-16.85 11.5-16.85ZM12.35-21.65L11.95-19.4-9.25-21.65 12.35-21.65ZM13.15-26.45L12.8-24.2-8.4-26.45 13.15-26.45ZM9.8-7.25L9.4-5-11.8-7.25 9.8-7.25Z" opacity="1" transform="matrix(1,0,0,1,0,0)" fill="#8d021f" class="wordmark-text-0" data-fill-palette-color="primary" id="text-0"></path></svg></g></svg></g></svg></g></svg></g><g></g></svg></g></svg></g></svg></g></svg></g><defs></defs></svg><rect width="320" height="360" fill="none" stroke="none" visibility="hidden"></rect></g></svg></g></svg>