<svg xmlns="http://www.w3.org/2000/svg" version="1.1" xmlns:xlink="http://www.w3.org/1999/xlink"
     xmlns:svgjs="http://svgjs.dev/svgjs" width="1000" height="1125" viewBox="0 0 1000 1125">
    <g transform="matrix(1,0,0,1,0,0)">
        <svg viewBox="0 0 320 360" data-background-color="#282634" preserveAspectRatio="xMidYMid meet" height="1125"
             width="1000" xmlns="http://www.w3.org/2000/svg" xmlns:xlink="http://www.w3.org/1999/xlink">
            <g id="tight-bounds" transform="matrix(1,0,0,1,0,0)">
                <svg viewBox="0 0 320 360" height="360" width="320">
                    <g>
                        <svg></svg>
                    </g>
                    <g>
                        <svg viewBox="0 0 320 360" height="360" width="320">
                            <g>
                                <path d="M320 187.111c0-45.764-20.238-86.866-52.203-114.908-28.043-31.964-69.145-52.203-114.908-52.203-84.302 0-152.889 68.587-152.889 152.889 0 45.753 20.231 86.848 52.185 114.891 28.043 31.975 69.152 52.22 114.926 52.22 0.299 0 0.59-0.021 0.889-0.021 0.299 0 0.59 0.021 0.889 0.021 83.456 0 151.111-67.655 151.111-151.111 0-0.299-0.021-0.59-0.021-0.889 0-0.299 0.021-0.59 0.021-0.889zM59.833 263.097c-15.093-21.255-24.071-47.143-24.256-75.097 0.48-72.928 59.492-131.943 132.423-132.423 27.954 0.185 53.845 9.163 75.097 24.256 24.366 23.627 39.57 56.64 39.57 93.056 0 71.559-58.219 129.778-129.778 129.778-36.416 0-69.429-15.204-93.056-39.57zM3.556 172.889c0-82.343 66.99-149.333 149.333-149.333 35.051 0 67.292 12.167 92.8 32.462-22.98-13.824-49.863-21.796-78.578-21.796-84.302 0-152.889 68.587-152.889 152.889 0 28.708 7.968 55.584 21.785 78.56-20.288-25.5-32.452-57.739-32.451-92.782zM167.111 318.667c-35.84 0-68.363-14.418-92.107-37.743 21.952 15.89 48.864 25.298 77.885 25.298 73.522 0 133.333-59.812 133.333-133.333 0-29.02-9.408-55.932-25.298-77.885 23.324 23.744 37.742 56.267 37.743 92.107 0 72.54-59.015 131.556-131.556 131.556z"
                                      fill="#ff4057" fill-rule="nonzero" stroke="none" stroke-width="1"
                                      stroke-linecap="butt" stroke-linejoin="miter" stroke-miterlimit="10"
                                      stroke-dasharray="" stroke-dashoffset="0" font-family="none" font-weight="none"
                                      font-size="none" text-anchor="none" style="mix-blend-mode: normal"
                                      data-fill-palette-color="tertiary"></path>
                            </g>
                            <g transform="matrix(1,0,0,1,86.91872791519435,99)">
                                <svg viewBox="0 0 146.1625441696113 162" height="162" width="146.1625441696113">
                                    <g>
                                        <svg viewBox="0 0 146.1625441696113 162" height="162" width="146.1625441696113">
                                            <g>
                                                <svg viewBox="0 0 146.1625441696113 162" height="162"
                                                     width="146.1625441696113">
                                                    <g>
                                                        <svg viewBox="0 0 146.1625441696113 162" height="162"
                                                             width="146.1625441696113">
                                                            <g id="textblocktransform">
                                                                <svg viewBox="0 0 146.1625441696113 162" height="162"
                                                                     width="146.1625441696113" id="textblock">
                                                                    <g>
                                                                        <svg viewBox="0 0 146.1625441696113 162"
                                                                             height="162" width="146.1625441696113">
                                                                            <g transform="matrix(1,0,0,1,0,0)">
                                                                                <svg width="146.1625441696113"
                                                                                     viewBox="2.25 -36.5 38.3 42.45"
                                                                                     height="162"
                                                                                     data-palette-color="#ff4057">
                                                                                    <path d="M15.15-17.7L15.15-4.5 14.65-4.5 14.65-31.5 15.15-31.5 15.15-18.2 26-18.2 31.75-31.5 32.3-31.5 26.55-18.2 28.6-18.2Q31.65-18.2 33.15-17.05 34.65-15.9 34.65-13.3L34.65-13.3 34.65-4.5 34.15-4.5 34.15-13.3Q34.15-15.7 32.75-16.7 31.35-17.7 28.6-17.7L28.6-17.7 15.15-17.7ZM11 0L18.75 0Q19.7 0 20.13-0.43 20.55-0.85 20.55-1.8L20.55-1.8 20.55-13.25 27.15-13.25Q27.95-13.25 28.35-12.8 28.75-12.35 28.75-11.55L28.75-11.55 28.75-1.8Q28.75-0.85 29.18-0.43 29.6 0 30.55 0L30.55 0 38.25 0Q39.2 0 39.63-0.43 40.05-0.85 40.05-1.8L40.05-1.8 40.05-15.9Q40.05-18.9 38.38-20.73 36.7-22.55 33.9-22.7L33.9-22.7 39-34.35Q39.35-35.15 39.05-35.58 38.75-36 37.9-36L37.9-36 30.2-36Q29.25-36 28.65-35.63 28.05-35.25 27.7-34.35L27.7-34.35 22.55-22.7 20.55-22.7 20.55-34.2Q20.55-35.15 20.13-35.58 19.7-36 18.75-36L18.75-36 11-36Q10.05-36 9.63-35.58 9.2-35.15 9.2-34.2L9.2-34.2 9.2-1.8Q9.2-0.85 9.63-0.43 10.05 0 11 0L11 0ZM20.35 0.05L20.35 0.05 13.85 5.45Q13.65 5.65 13.23 5.8 12.8 5.95 12.3 5.95L12.3 5.95 4.55 5.95Q3.35 5.95 2.8 5.4 2.25 4.85 2.25 3.65L2.25 3.65 2.25-28.75Q2.25-29.4 2.43-29.85 2.6-30.3 2.95-30.6L2.95-30.6 9.4-36.05Q9.65-36.25 10.08-36.38 10.5-36.5 11-36.5L11-36.5 18.75-36.5Q19.95-36.5 20.5-35.95 21.05-35.4 21.05-34.2L21.05-34.2 21.05-29.65Q21.2-29.85 21.35-30.08 21.5-30.3 21.7-30.45L21.7-30.45 28.15-35.9Q28.5-36.2 29.03-36.35 29.55-36.5 30.2-36.5L30.2-36.5 37.9-36.5Q39.15-36.5 39.55-35.88 39.95-35.25 39.45-34.15L39.45-34.15 34.65-23.15Q37.35-22.8 38.95-20.85 40.55-18.9 40.55-15.9L40.55-15.9 40.55-1.8Q40.55-1.15 40.38-0.7 40.2-0.25 39.85 0.05L39.85 0.05 33.35 5.45Q33.15 5.65 32.73 5.8 32.3 5.95 31.8 5.95L31.8 5.95 24.1 5.95Q22.9 5.95 22.35 5.4 21.8 4.85 21.8 3.65L21.8 3.65 21.8-6.1Q21.8-6.6 21.6-6.9 21.4-7.2 21.05-7.25L21.05-7.25 21.05-1.8Q21.05-1.15 20.88-0.7 20.7-0.25 20.35 0.05Z"
                                                                                          opacity="1"
                                                                                          transform="matrix(1,0,0,1,0,0)"
                                                                                          fill="#ff4057"
                                                                                          class="wordmark-text-0"
                                                                                          data-fill-palette-color="primary"
                                                                                          id="text-0"></path>
                                                                                </svg>
                                                                            </g>
                                                                        </svg>
                                                                    </g>
                                                                </svg>
                                                            </g>
                                                        </svg>
                                                    </g>
                                                </svg>
                                            </g>
                                        </svg>
                                    </g>
                                </svg>
                            </g>
                        </svg>
                    </g>
                    <defs></defs>
                </svg>
                <rect width="320" height="360" fill="none" stroke="none" visibility="hidden"></rect>
            </g>
        </svg>
    </g>
</svg>