<svg xmlns="http://www.w3.org/2000/svg" version="1.1" xmlns:xlink="http://www.w3.org/1999/xlink" xmlns:svgjs="http://svgjs.dev/svgjs" width="1000" height="1125" viewBox="0 0 1000 1125"><g transform="matrix(1,0,0,1,0,0)"><svg viewBox="0 0 320 360" data-background-color="#ffffff" preserveAspectRatio="xMidYMid meet" height="1125" width="1000" xmlns="http://www.w3.org/2000/svg" xmlns:xlink="http://www.w3.org/1999/xlink"><g id="tight-bounds" transform="matrix(1,0,0,1,0,0)"><svg viewBox="0 0 320 360" height="360" width="320"><g><svg></svg></g><g><svg viewBox="0 0 320 360" height="360" width="320"><g><path d="M297.491 100.645c-12.426-21.51-112.674-79.355-137.491-79.355-24.817 0-125.028 57.845-137.491 79.355-11.591 20.02-11.591 138.726 0 158.746 12.463 21.474 112.674 79.319 137.491 79.319 24.817 0 125.064-57.845 137.491-79.355 11.591-20.02 11.591-138.69 0-158.71zM309.481 93.705c-14.461-24.998-119.469-86.295-149.481-86.295-30.012 0-135.02 61.297-149.481 86.295-14.025 24.199-14.025 148.391 0 172.59 14.461 24.998 119.469 86.295 149.481 86.295 30.012 0 135.02-61.297 149.481-86.259 14.025-24.235 14.025-148.427 0-172.626zM300.906 261.353c-12.753 22.055-115.472 81.317-140.906 81.318-25.434 0-128.153-59.298-140.906-81.354-11.881-20.529-11.881-142.178 0-162.707 12.753-22.019 115.472-81.281 140.906-81.281 25.434 0 128.153 59.298 140.906 81.318 11.881 20.529 11.881 142.178 0 162.706z" fill="#8d021f" fill-rule="nonzero" stroke="none" stroke-width="1" stroke-linecap="butt" stroke-linejoin="miter" stroke-miterlimit="10" stroke-dasharray="" stroke-dashoffset="0" font-family="none" font-weight="none" font-size="none" text-anchor="none" style="mix-blend-mode: normal" data-fill-palette-color="tertiary"></path></g><g transform="matrix(1,0,0,1,48,119.54285714285714)"><svg viewBox="0 0 224 120.91428571428573" height="120.91428571428573" width="224"><g><svg viewBox="0 0 224 120.91428571428573" height="120.91428571428573" width="224"><g><svg viewBox="0 0 224 120.91428571428573" height="120.91428571428573" width="224"><g><svg viewBox="0 0 224 120.91428571428573" height="120.91428571428573" width="224"><g id="textblocktransform"><svg viewBox="0 0 224 120.91428571428573" height="120.91428571428573" width="224" id="textblock"><g><svg viewBox="0 0 224 120.91428571428573" height="120.91428571428573" width="224"><g transform="matrix(1,0,0,1,0,0)"><svg width="224" viewBox="-12.65 -26.45 49 26.45" height="120.91428571428573" data-palette-color="#ffffff"><path d="M31.9 0L22.75 0 20.4-8.65 20.1-8.65 18.6 0 10.2 0 14.8-26.45 23.25-26.45 21.8-18.35 22.05-18.35 27.2-26.45 36.35-26.45 27.95-13.5 31.9 0ZM8.95-2.4L8.55-0.15-12.65-2.4 8.95-2.4ZM10.65-12.05L10.25-9.8-10.95-12.05 10.65-12.05ZM11.5-16.85L11.1-14.6-10.1-16.85 11.5-16.85ZM12.35-21.65L11.95-19.4-9.25-21.65 12.35-21.65ZM13.15-26.45L12.8-24.2-8.4-26.45 13.15-26.45ZM9.8-7.25L9.4-5-11.8-7.25 9.8-7.25Z" opacity="1" transform="matrix(1,0,0,1,0,0)" fill="#ffffff" class="wordmark-text-0" data-fill-palette-color="quaternary" id="text-0"></path></svg></g></svg></g></svg></g></svg></g><g></g></svg></g></svg></g></svg></g></svg></g><defs></defs></svg><rect width="320" height="360" fill="none" stroke="none" visibility="hidden"></rect></g></svg></g></svg>